<?xml version="1.0" encoding="UTF-8"?>
<svg width="42px" height="46px" viewBox="0 0 42 46" version="1.1" xmlns="http://www.w3.org/2000/svg" xmlns:xlink="http://www.w3.org/1999/xlink">
    <title>DegreeSee Shorthand Logo</title>
    <g id="White-Mobile-Logo" stroke="none" stroke-width="1" fill="none" fill-rule="evenodd">
        <g id="Profile-Picture" transform="translate(-77.000000, -78.000000)" fill="#FFFFFF">
            <g id="DegreeSee-Shorthand-Logo" transform="translate(77.000000, 78.000002)">
                <path d="M14.90625,45.9999982 C18.46875,45.9999982 21.6171875,45.3164268 24.3515625,43.9492839 C27.0859375,42.5821411 29.2109375,40.6571411 30.7265625,38.1742839 C32.2421875,35.6914268 33,32.7999982 33,29.4999982 C33,26.1999982 32.2421875,23.3085696 30.7265625,20.8257125 C29.2109375,18.3428553 27.0859375,16.4178553 24.3515625,15.0507125 C21.6171875,13.6835696 18.46875,12.9999982 14.90625,12.9999982 L0,12.9999982 L0,45.9999982 L14.90625,45.9999982 Z M7.77857143,39.8714268 L7.77857143,19.1285696 L14.6080499,19.1285696 C17.8382086,19.1285696 20.4146447,20.0605644 22.3373583,21.9245538 C24.2600718,23.7885433 25.2214286,26.3136914 25.2214286,29.4999982 C25.2214286,32.686305 24.2600718,35.2114531 22.3373583,37.0754426 C20.4146447,38.939432 17.8382086,39.8714268 14.6080499,39.8714268 L7.77857143,39.8714268 Z" id="D" fill-rule="nonzero"></path>
                <path d="M33.5210336,1.06671523e-14 C37.9392331,1.25609092e-14 41.5720573,3.35428938 41.9999224,7.64925923 L37.6961701,7.64923519 C37.3011202,5.70971158 35.5819659,4.2499991 33.5210336,4.2499991 C31.1680146,4.2499991 29.2605159,6.15278851 29.2605159,8.4999982 C29.2605159,10.8472079 31.1680146,12.7499991 33.5210336,12.7499991 C35.5823208,12.7499991 37.3017123,11.2897825 37.6963741,9.34975926 L42.0000218,9.34974204 C41.5726202,13.6451878 37.9395753,17 33.5210336,17 C28.8149957,17 24.9999982,13.1944176 24.9999982,8.5 C24.9999982,3.80557882 28.8149957,8.65002032e-15 33.5210336,1.06671523e-14 Z M33.4450918,4.36486307 C33.4968952,4.36486307 33.5484731,4.36584146 33.5998085,4.36778101 C33.1737494,4.97443541 32.9621775,5.5798892 32.9621775,6.18534299 C32.9621775,7.3426706 33.9929131,7.3426706 33.9929131,8.4999982 C33.9929131,9.65732581 32.9621775,9.65732581 32.9621775,10.8146534 C32.9621775,11.4202297 33.173835,12.0258061 33.59715,12.6313824 L33.4450918,12.6351333 C31.1916442,12.6351333 29.3648639,10.7837703 29.3648639,8.4999982 C29.3648639,6.21622613 31.1916442,4.36486307 33.4450918,4.36486307 Z" id="Combined-Shape"></path>
            </g>
        </g>
    </g>
</svg>