<?xml version="1.0" encoding="UTF-8"?>
<svg width="79px" height="20px" viewBox="0 0 79 20" version="1.1" xmlns="http://www.w3.org/2000/svg" xmlns:xlink="http://www.w3.org/1999/xlink">
    <title>DegreeSee Logo Long</title>
    <g id="White-Logo" stroke="none" stroke-width="1" fill="none" fill-rule="evenodd">
        <g id="Artboard" transform="translate(-312.000000, -78.000000)" fill="#FFFFFF">
            <g id="DegreeSee-Logo-Long" transform="translate(312.999236, 79.000764)">
                <path d="M9.02304303,1.78590999e-15 C13.7017217,3.79131509e-15 17.5486896,3.55158157 18.0015104,8.09906943 L13.4443433,8.09943769 C13.0263812,6.04553327 11.2057236,4.49961785 9.02304303,4.49961785 C6.5313985,4.49961785 4.51152151,6.51416538 4.51152151,8.9992357 C4.51152151,11.484306 6.5313985,13.4988535 9.02304303,13.4988535 C11.2053677,13.4988535 13.0257873,11.9534423 13.4441387,9.90003851 L18.0014682,9.89982581 C17.5484505,14.4471105 13.7015763,17.9984714 9.02304303,17.9984714 C4.03975397,17.9984714 -4.61852778e-14,13.9693763 -4.26325641e-14,8.9992357 C-3.90798505e-14,4.02909506 4.03975397,-3.50059159e-16 9.02304303,1.78590999e-15 Z M9.00077968,4.66976329 C9.03258889,4.66976329 9.06431796,4.67010644 9.09596339,4.67078925 C8.67673579,5.2957095 8.46772354,5.91965134 8.46772354,6.54359319 C8.46772354,7.77141444 9.54690022,7.77141444 9.54690022,8.9992357 C9.54690022,10.2270569 8.46772354,10.2270569 8.46772354,11.4548782 C8.46772354,12.0786655 8.67663225,12.7024528 9.09444969,13.3262401 L9.00077968,13.3286859 C6.61006674,13.3286859 4.67201098,11.39032 4.67201098,8.99922458 C4.67201098,6.60812913 6.61006674,4.66976329 9.00077968,4.66976329 Z" id="Combined-Shape"></path>
                <path d="M23.188403,13.0625268 C23.9502285,13.0625268 24.6235086,12.9185757 25.2082431,12.6306733 C25.7929777,12.342771 26.2473999,11.9373912 26.5715099,11.4145341 C26.8956199,10.8916769 27.0576749,10.28278 27.0576749,9.58784329 C27.0576749,8.89290658 26.8956199,8.28400966 26.5715099,7.76115251 C26.2473999,7.23829537 25.7929777,6.83291562 25.2082431,6.54501327 C24.6235086,6.25711092 23.9502285,6.11315975 23.188403,6.11315975 L23.188403,6.11315975 L20.0007644,6.11315975 L20.0007644,13.0625268 L23.188403,13.0625268 Z M23.0649017,11.6954382 L21.5942603,11.6954382 L21.5942603,7.3663243 L23.0649017,7.3663243 C23.7604753,7.3663243 24.3152781,7.56083518 24.72931,7.94985694 C25.1433419,8.3388787 25.3503579,8.86588681 25.3503579,9.53088126 C25.3503579,10.1958757 25.1433419,10.7228838 24.72931,11.1119056 C24.3152781,11.5009273 23.7604753,11.6954382 23.0649017,11.6954382 L23.0649017,11.6954382 Z M30.7081818,13.0625268 C31.6851299,13.0625268 32.427878,12.7762772 32.9364263,12.203778 L32.9364263,12.203778 L32.1033439,11.3154172 C31.915984,11.4930894 31.7135684,11.6230533 31.4960971,11.7053089 C31.2786258,11.7875645 31.0293702,11.8286924 30.7483304,11.8286924 C30.3401534,11.8286924 29.9988908,11.7332758 29.7245423,11.5424428 C29.4501939,11.3516097 29.2762169,11.0916819 29.2026112,10.7626594 L29.2026112,10.7626594 L33.2877261,10.7626594 C33.3078004,10.5060218 33.3178375,10.3678323 33.3178375,10.348091 C33.3178375,9.79533312 33.195719,9.31002489 32.951482,8.89216628 C32.707245,8.47430767 32.3710009,8.1535107 31.9427497,7.92977538 C31.5144985,7.70604006 31.0360616,7.5941724 30.5074391,7.5941724 C29.9654336,7.5941724 29.4752868,7.7109754 29.0369984,7.9445814 C28.5987101,8.17818739 28.2541017,8.5039197 28.0031733,8.92177831 C27.7522448,9.33963692 27.6267806,9.80849402 27.6267806,10.3283496 C27.6267806,10.8547857 27.7539177,11.3252879 28.0081919,11.7398563 C28.262466,12.1544247 28.6238029,12.4785118 29.0922027,12.7121178 C29.5606024,12.9457238 30.0992621,13.0625268 30.7081818,13.0625268 Z M31.8381627,9.87265342 L29.2202766,9.87265342 C29.2729636,9.52003136 29.4178529,9.24200242 29.6549445,9.03856662 C29.892036,8.83513081 30.1851076,8.73341291 30.5341591,8.73341291 C30.8766247,8.73341291 31.1664033,8.83682611 31.4034948,9.04365251 C31.6405864,9.25047891 31.7854757,9.52681255 31.8381627,9.87265342 L31.8381627,9.87265342 Z M36.9153507,14.9992357 C37.8968269,14.9992357 38.6428814,14.7616401 39.1535143,14.2864489 C39.6641471,13.8112576 39.9194636,13.085271 39.9194636,12.1084891 L39.9194636,12.1084891 L39.9194636,7.67337094 L38.4472493,7.67337094 L38.4472493,8.35645833 C38.042722,7.84826771 37.4525099,7.5941724 36.6766132,7.5941724 C36.1858752,7.5941724 35.7365846,7.70142042 35.3287414,7.91591646 C34.9208983,8.1304125 34.597608,8.43235693 34.3588705,8.82174974 C34.1201331,9.21114255 34.0007644,9.65993427 34.0007644,10.1681249 C34.0007644,10.6763155 34.1201331,11.1251072 34.3588705,11.5145 C34.597608,11.9038928 34.9208983,12.2058373 35.3287414,12.4203333 C35.7365846,12.6348293 36.1858752,12.7420774 36.6766132,12.7420774 C37.3994572,12.7420774 37.9631428,12.5209814 38.3676702,12.0787896 L38.3676702,12.0787896 L38.3676702,12.3064854 C38.3676702,12.7948764 38.2400119,13.1595197 37.9846955,13.4004152 C37.7293791,13.6413108 37.3331412,13.7617585 36.795982,13.7617585 C36.451139,13.7617585 36.106296,13.7073095 35.761453,13.5984116 C35.4166101,13.4895136 35.1314514,13.3426663 34.9059772,13.1578697 L34.9059772,13.1578697 L34.2892388,14.2666492 C34.5942922,14.5042448 34.9789247,14.6857415 35.4431364,14.8111392 C35.9073481,14.9365369 36.3980862,14.9992357 36.9153507,14.9992357 Z M36.9082308,11.4675901 C36.4926295,11.4675901 36.1507639,11.3468335 35.882634,11.1053203 C35.6145041,10.863807 35.4804392,10.5478548 35.4804392,10.1574635 C35.4804392,9.76707229 35.6145041,9.45112005 35.882634,9.20960681 C36.1507639,8.96809358 36.4926295,8.84733696 36.9082308,8.84733696 C37.3238322,8.84733696 37.664022,8.96809358 37.9288002,9.20960681 C38.1935785,9.45112005 38.3259676,9.76707229 38.3259676,10.1574635 C38.3259676,10.5478548 38.1935785,10.863807 37.9288002,11.1053203 C37.664022,11.3468335 37.3238322,11.4675901 36.9082308,11.4675901 Z M42.9408354,13.0625268 L42.9408354,10.5186403 C42.9408354,10.0178753 43.066016,9.64230149 43.316377,9.39191896 C43.5667381,9.14153643 43.9126317,9.01634517 44.3540578,9.01634517 C44.4133538,9.01634517 44.5286517,9.02302204 44.6999514,9.03637577 L44.6999514,9.03637577 L44.6999514,7.5941724 C44.2914675,7.5941724 43.9307499,7.66094108 43.6177986,7.79447843 C43.3048473,7.92801578 43.0561333,8.12498337 42.8716567,8.3853812 L42.8716567,8.3853812 L42.8716567,7.67429481 L41.3991384,7.67429481 L41.3991384,13.0625268 L42.9408354,13.0625268 Z M48.2366371,13.0625268 C49.2135851,13.0625268 49.9563333,12.7762772 50.4648816,12.203778 L50.4648816,12.203778 L49.6317992,11.3154172 C49.4444393,11.4930894 49.2420237,11.6230533 49.0245524,11.7053089 C48.8070811,11.7875645 48.5578255,11.8286924 48.2767856,11.8286924 C47.8686087,11.8286924 47.5273461,11.7332758 47.2529976,11.5424428 C46.9786492,11.3516097 46.8046722,11.0916819 46.7310665,10.7626594 L46.7310665,10.7626594 L50.8161814,10.7626594 C50.8362557,10.5060218 50.8462928,10.3678323 50.8462928,10.348091 C50.8462928,9.79533312 50.7241743,9.31002489 50.4799373,8.89216628 C50.2357003,8.47430767 49.8994562,8.1535107 49.471205,7.92977538 C49.0429538,7.70604006 48.5645169,7.5941724 48.0358944,7.5941724 C47.4938889,7.5941724 47.0037421,7.7109754 46.5654537,7.9445814 C46.1271654,8.17818739 45.782557,8.5039197 45.5316286,8.92177831 C45.2807001,9.33963692 45.1552359,9.80849402 45.1552359,10.3283496 C45.1552359,10.8547857 45.282373,11.3252879 45.5366471,11.7398563 C45.7909213,12.1544247 46.1522582,12.4785118 46.620658,12.7121178 C47.0890577,12.9457238 47.6277174,13.0625268 48.2366371,13.0625268 Z M49.2527969,9.87265342 L46.6349107,9.87265342 C46.6875977,9.52003136 46.832487,9.24200242 47.0695786,9.03856662 C47.3066702,8.83513081 47.5997417,8.73341291 47.9487932,8.73341291 C48.2912588,8.73341291 48.5810374,8.83682611 48.818129,9.04365251 C49.0552206,9.25047891 49.2001099,9.52681255 49.2527969,9.87265342 L49.2527969,9.87265342 Z M54.4967997,13.0625268 C55.4737477,13.0625268 56.2164959,12.7762772 56.7250442,12.203778 L56.7250442,12.203778 L55.8919618,11.3154172 C55.7046019,11.4930894 55.5021863,11.6230533 55.284715,11.7053089 C55.0672437,11.7875645 54.8179881,11.8286924 54.5369482,11.8286924 C54.1287713,11.8286924 53.7875087,11.7332758 53.5131602,11.5424428 C53.2388118,11.3516097 53.0648348,11.0916819 52.9912291,10.7626594 L52.9912291,10.7626594 L57.076344,10.7626594 C57.0964183,10.5060218 57.1064554,10.3678323 57.1064554,10.348091 C57.1064554,9.79533312 56.9843369,9.31002489 56.7400999,8.89216628 C56.4958629,8.47430767 56.1596188,8.1535107 55.7313676,7.92977538 C55.3031164,7.70604006 54.8246795,7.5941724 54.296057,7.5941724 C53.7540515,7.5941724 53.2639047,7.7109754 52.8256163,7.9445814 C52.387328,8.17818739 52.0427196,8.5039197 51.7917912,8.92177831 C51.5408627,9.33963692 51.4153985,9.80849402 51.4153985,10.3283496 C51.4153985,10.8547857 51.5425356,11.3252879 51.7968097,11.7398563 C52.0510839,12.1544247 52.4124208,12.4785118 52.8808206,12.7121178 C53.3492203,12.9457238 53.88788,13.0625268 54.4967997,13.0625268 Z M55.6267806,9.87265342 L53.0088945,9.87265342 C53.0615815,9.52003136 53.2064708,9.24200242 53.4435623,9.03856662 C53.6806539,8.83513081 53.9737255,8.73341291 54.3227769,8.73341291 C54.6652426,8.73341291 54.9550212,8.83682611 55.1921127,9.04365251 C55.4292043,9.25047891 55.5740936,9.52681255 55.6267806,9.87265342 L55.6267806,9.87265342 Z M60.518156,13.1764509 C61.1564931,13.1764509 61.6984147,13.0806225 62.1439209,12.8889657 C62.589427,12.697309 62.9235565,12.4379115 63.1463096,12.1107732 C63.3690626,11.783635 63.4804392,11.4218002 63.4804392,11.025269 C63.4804392,10.5626492 63.3590886,10.1958578 63.1163875,9.92489483 C62.8736864,9.65393183 62.5827776,9.45566621 62.243661,9.33009799 C61.9045444,9.20452977 61.4690124,9.07896155 60.9370648,8.95339333 C60.4250652,8.84104281 60.0443902,8.72704009 59.7950398,8.61138515 C59.5456894,8.49573021 59.4210141,8.31894337 59.4210141,8.08102463 C59.4210141,7.8431059 59.529066,7.65144914 59.7451697,7.50605435 C59.9612734,7.36065957 60.295403,7.28796218 60.7475584,7.28796218 C61.3925449,7.28796218 62.0375313,7.46970566 62.6825178,7.83319262 L62.6825178,7.83319262 L63.1812186,6.6138591 C62.8620501,6.41559348 62.4896868,6.26358985 62.0641287,6.15784819 C61.6385706,6.05210653 61.2030386,5.9992357 60.7575325,5.9992357 C60.1191953,5.9992357 59.5789361,6.09506407 59.1367546,6.28672083 C58.6945732,6.47837759 58.3637683,6.7377751 58.1443399,7.06491337 C57.9249115,7.39205163 57.8151974,7.7571908 57.8151974,8.16033088 C57.8151974,8.62295064 57.9365479,8.99304645 58.179249,9.27061831 C58.4219501,9.54819017 58.7128589,9.74976021 59.0519755,9.87532843 C59.3910921,10.0008967 59.8266242,10.1264649 60.3585718,10.2520331 C60.7043377,10.3313393 60.9786232,10.4040367 61.1814282,10.4701253 C61.3842332,10.5362138 61.5504668,10.6237811 61.680129,10.7328272 C61.8097913,10.8418733 61.8746224,10.979007 61.8746224,11.1442284 C61.8746224,11.3689294 61.7649082,11.5490206 61.5454798,11.6845021 C61.3260514,11.8199836 60.9869348,11.8877244 60.5281301,11.8877244 C60.1158707,11.8877244 59.7036113,11.8216359 59.2913519,11.6894588 C58.8790925,11.5572817 58.5233526,11.3821471 58.2241321,11.1640549 L58.2241321,11.1640549 L57.6755611,12.3734752 C57.9880803,12.6113939 58.402002,12.8047029 58.9173263,12.9534021 C59.4326505,13.1021013 59.9662604,13.1764509 60.518156,13.1764509 Z M67.130946,13.0625268 C68.1078941,13.0625268 68.8506423,12.7762772 69.3591905,12.203778 L69.3591905,12.203778 L68.5261081,11.3154172 C68.3387482,11.4930894 68.1363326,11.6230533 67.9188613,11.7053089 C67.70139,11.7875645 67.4521344,11.8286924 67.1710946,11.8286924 C66.7629177,11.8286924 66.421655,11.7332758 66.1473066,11.5424428 C65.8729582,11.3516097 65.6989811,11.0916819 65.6253754,10.7626594 L65.6253754,10.7626594 L69.7104904,10.7626594 C69.7305646,10.5060218 69.7406018,10.3678323 69.7406018,10.348091 C69.7406018,9.79533312 69.6184833,9.31002489 69.3742463,8.89216628 C69.1300092,8.47430767 68.7937651,8.1535107 68.3655139,7.92977538 C67.9372627,7.70604006 67.4588259,7.5941724 66.9302033,7.5941724 C66.3881979,7.5941724 65.898051,7.7109754 65.4597627,7.9445814 C65.0214743,8.17818739 64.6768659,8.5039197 64.4259375,8.92177831 C64.1750091,9.33963692 64.0495449,9.80849402 64.0495449,10.3283496 C64.0495449,10.8547857 64.1766819,11.3252879 64.4309561,11.7398563 C64.6852302,12.1544247 65.0465672,12.4785118 65.5149669,12.7121178 C65.9833667,12.9457238 66.5220264,13.0625268 67.130946,13.0625268 Z M68.260927,9.87265342 L65.6430408,9.87265342 C65.6957278,9.52003136 65.8406171,9.24200242 66.0777087,9.03856662 C66.3148003,8.83513081 66.6078718,8.73341291 66.9569233,8.73341291 C67.2993889,8.73341291 67.5891675,8.83682611 67.8262591,9.04365251 C68.0633507,9.25047891 68.20824,9.52681255 68.260927,9.87265342 L68.260927,9.87265342 Z M73.3911086,13.0625268 C74.3680567,13.0625268 75.1108049,12.7762772 75.6193531,12.203778 L75.6193531,12.203778 L74.7862707,11.3154172 C74.5989108,11.4930894 74.3964952,11.6230533 74.1790239,11.7053089 C73.9615526,11.7875645 73.712297,11.8286924 73.4312572,11.8286924 C73.0230803,11.8286924 72.6818176,11.7332758 72.4074692,11.5424428 C72.1331208,11.3516097 71.9591437,11.0916819 71.885538,10.7626594 L71.885538,10.7626594 L75.970653,10.7626594 C75.9907272,10.5060218 76.0007644,10.3678323 76.0007644,10.348091 C76.0007644,9.79533312 75.8786459,9.31002489 75.6344089,8.89216628 C75.3901718,8.47430767 75.0539277,8.1535107 74.6256765,7.92977538 C74.1974253,7.70604006 73.7189885,7.5941724 73.1903659,7.5941724 C72.6483605,7.5941724 72.1582136,7.7109754 71.7199253,7.9445814 C71.2816369,8.17818739 70.9370285,8.5039197 70.6861001,8.92177831 C70.4351717,9.33963692 70.3097075,9.80849402 70.3097075,10.3283496 C70.3097075,10.8547857 70.4368445,11.3252879 70.6911187,11.7398563 C70.9453928,12.1544247 71.3067298,12.4785118 71.7751295,12.7121178 C72.2435293,12.9457238 72.782189,13.0625268 73.3911086,13.0625268 Z M74.5210896,9.87265342 L71.9032034,9.87265342 C71.9558904,9.52003136 72.1007797,9.24200242 72.3378713,9.03856662 C72.5749629,8.83513081 72.8680344,8.73341291 73.2170859,8.73341291 C73.5595515,8.73341291 73.8493301,8.83682611 74.0864217,9.04365251 C74.3235133,9.25047891 74.4684026,9.52681255 74.5210896,9.87265342 L74.5210896,9.87265342 Z" id="DegreeSee" fill-rule="nonzero"></path>
            </g>
        </g>
    </g>
</svg>