<?xml version="1.0" standalone="no"?>
<!DOCTYPE svg PUBLIC "-//W3C//DTD SVG 20010904//EN"
 "http://www.w3.org/TR/2001/REC-SVG-20010904/DTD/svg10.dtd">
<svg version="1.0" xmlns="http://www.w3.org/2000/svg"
 width="1052.000000pt" height="1052.000000pt" viewBox="0 0 1052.000000 1052.000000"
 preserveAspectRatio="xMidYMid meet">
<metadata>
Created by potrace 1.11, written by Peter Selinger 2001-2013
</metadata>
<g transform="translate(0.000000,1052.000000) scale(0.100000,-0.100000)"
fill="#000000" stroke="none">
<path d="M7798 10495 c-1 -1 -28 -6 -58 -9 -30 -3 -82 -10 -115 -16 -33 -6
-75 -13 -93 -16 -19 -3 -51 -12 -73 -19 -21 -8 -39 -12 -39 -10 0 2 -44 -12
-97 -31 -54 -19 -102 -36 -108 -37 -35 -7 -315 -158 -382 -207 -46 -32 -83
-57 -83 -55 0 2 -11 -6 -23 -18 -13 -12 -50 -44 -82 -72 -116 -99 -265 -262
-321 -350 -10 -16 -23 -35 -29 -42 -5 -7 -15 -19 -22 -27 -6 -7 -9 -17 -6 -20
4 -3 1 -6 -5 -6 -7 0 -12 -6 -12 -14 0 -8 -6 -21 -14 -29 -8 -8 -40 -66 -71
-128 -32 -63 -64 -126 -72 -141 -8 -16 -11 -28 -7 -28 3 0 1 -6 -5 -13 -6 -8
-8 -17 -4 -20 3 -4 0 -7 -7 -7 -7 0 -10 -3 -7 -6 3 -4 2 -15 -4 -26 -6 -11
-13 -31 -15 -46 -3 -14 -8 -30 -12 -36 -3 -6 -7 -16 -8 -22 -1 -6 -9 -36 -17
-65 -17 -59 -38 -159 -42 -199 -2 -14 -6 -49 -10 -78 -4 -28 -8 -73 -9 -100
-1 -26 -5 -52 -9 -59 -4 -6 -3 -13 3 -15 6 -2 7 -14 1 -34 -6 -22 -5 -36 2
-43 8 -8 8 -11 -2 -11 -7 0 -9 -5 -5 -12 4 -6 9 -45 10 -87 3 -72 8 -117 18
-186 2 -16 7 -48 10 -70 3 -22 17 -83 31 -135 14 -52 27 -100 28 -107 2 -7 6
-16 10 -19 4 -4 7 -13 7 -20 0 -7 5 -25 12 -41 6 -15 12 -31 13 -35 2 -5 3 -9
5 -10 1 -2 3 -11 5 -22 2 -10 8 -23 14 -29 6 -6 11 -19 11 -29 0 -10 5 -18 10
-18 6 0 9 -3 8 -7 -4 -12 78 -167 130 -248 87 -134 102 -155 112 -155 6 0 10
-6 10 -12 0 -27 217 -250 320 -329 25 -18 47 -37 50 -40 3 -4 37 -28 75 -53
39 -25 75 -50 82 -56 27 -23 224 -121 308 -153 140 -54 134 -52 173 -61 12 -3
26 -7 30 -10 5 -3 19 -7 33 -10 13 -3 44 -10 69 -16 25 -5 63 -12 85 -15 22
-4 47 -8 54 -11 74 -25 494 -25 606 -1 11 3 41 8 66 11 62 8 190 42 274 73 39
14 82 27 98 30 15 3 27 9 27 14 0 5 6 9 14 9 14 0 229 105 251 122 6 4 48 33
95 64 47 31 101 70 120 86 19 16 46 38 60 50 80 65 227 217 271 279 13 19 29
39 35 44 39 32 244 389 244 424 0 6 5 11 11 11 5 0 8 4 5 8 -2 4 1 21 9 37 12
28 26 63 30 75 1 3 11 36 23 74 12 37 24 78 26 90 2 11 9 39 15 61 5 22 13 56
15 75 3 19 7 46 10 60 3 14 7 45 10 70 l5 46 -510 0 -509 0 -12 -41 c-6 -22
-11 -46 -11 -52 0 -7 -4 -13 -9 -13 -4 0 -7 -3 -6 -7 4 -16 -26 -93 -35 -93
-6 0 -7 -3 -4 -7 8 -7 -38 -91 -94 -173 -57 -84 -138 -165 -249 -250 -81 -62
-279 -148 -352 -153 -15 -1 -28 -4 -28 -7 0 -4 -10 -7 -22 -7 -39 -2 -133 -11
-143 -13 -5 -1 -12 -2 -15 -1 -3 1 -41 4 -85 6 -44 2 -91 6 -105 10 -14 3 -36
7 -50 10 -39 6 -161 50 -210 76 -25 13 -47 23 -50 24 -3 0 -19 10 -37 23 -17
12 -34 22 -38 22 -10 0 -105 80 -155 131 -55 56 -110 122 -130 158 -8 14 -18
28 -21 31 -24 21 -111 241 -124 315 -2 17 -7 41 -11 55 -7 33 -13 262 -6 274
3 5 7 27 9 49 3 43 25 124 51 197 20 57 94 202 112 220 3 3 23 28 45 55 44 56
128 140 169 170 15 11 37 28 48 38 12 9 27 17 35 17 7 0 16 7 19 15 4 8 10 15
14 15 5 0 41 15 82 34 64 29 108 47 115 47 2 0 17 5 35 11 18 5 42 11 53 14
61 11 84 14 126 17 25 2 51 7 57 11 7 4 12 3 12 -3 0 -6 11 -6 29 -1 16 4 32
6 35 2 4 -3 28 -7 54 -8 70 -4 118 -13 207 -41 73 -23 233 -96 245 -112 3 -4
19 -15 35 -25 17 -11 37 -25 45 -32 29 -25 145 -141 160 -160 34 -43 80 -113
80 -123 0 -6 4 -11 8 -11 13 0 79 -148 83 -185 0 -5 6 -19 12 -30 5 -11 12
-33 14 -49 2 -17 7 -32 12 -35 5 -4 236 -6 513 -6 l503 0 -3 45 c-1 25 -7 69
-13 97 -6 29 -12 65 -14 80 -2 16 -4 28 -5 28 -1 0 -3 11 -6 24 -2 14 -11 44
-19 68 -8 24 -15 48 -15 54 0 22 -76 211 -125 311 -113 228 -266 432 -451 598
-93 85 -119 106 -150 126 -16 10 -31 21 -34 24 -12 13 -131 90 -139 90 -5 0
-11 3 -13 8 -6 14 -210 117 -241 121 -4 0 -22 8 -39 17 -32 17 -195 72 -233
80 -11 2 -41 8 -66 14 -26 6 -55 13 -65 15 -11 2 -19 4 -19 5 0 1 -18 3 -40 5
-22 2 -53 7 -70 10 -31 7 -410 16 -417 10z"/>
<path d="M7860 9389 c-86 -14 -191 -40 -235 -59 -80 -35 -106 -48 -150 -74
-27 -17 -51 -34 -53 -38 -2 -4 -10 -8 -17 -8 -18 0 -185 -166 -223 -222 -84
-123 -139 -262 -159 -398 -9 -58 -8 -233 2 -285 13 -74 75 -251 98 -280 4 -5
25 -37 46 -71 57 -91 185 -216 276 -271 80 -49 127 -73 138 -73 7 0 17 -4 22
-9 8 -7 49 -22 100 -38 45 -13 151 -33 201 -36 l62 -5 -22 41 c-11 23 -25 45
-29 48 -5 3 -8 10 -8 15 1 5 -6 30 -14 55 -17 50 -22 73 -32 134 -23 151 12
259 121 380 20 22 36 43 36 47 0 4 8 17 18 28 9 11 17 24 18 28 0 4 7 21 14
37 18 40 18 210 0 250 -7 17 -14 33 -14 37 -1 9 -79 117 -104 144 -35 38 -60
80 -76 129 -29 83 -22 246 14 330 4 11 18 46 30 78 12 31 26 57 30 57 5 0 7 8
6 17 -3 19 -28 22 -96 12z"/>
<path d="M694 7401 c-2 -3 -31 -3 -64 -2 -52 2 -60 0 -61 -16 -1 -24 -1 -7303
0 -7325 1 -20 33 -26 79 -17 17 4 34 3 37 -2 3 -4 17 -4 30 1 13 5 27 6 29 1
3 -4 26 -5 51 -1 25 4 48 3 51 -1 2 -5 16 -4 29 1 13 5 26 6 29 1 3 -4 28 -5
56 -1 28 4 53 3 56 -2 3 -4 13 -4 23 1 9 5 22 6 28 3 14 -9 82 -7 90 2 4 3 12
1 19 -5 8 -7 14 -7 19 1 4 7 12 7 25 0 13 -7 21 -7 25 0 4 7 13 7 26 0 13 -8
19 -7 19 0 0 6 5 8 11 4 14 -8 165 -7 179 1 5 3 11 1 15 -5 4 -6 12 -7 24 -1
9 5 23 6 30 2 7 -5 30 -5 52 -1 22 4 42 4 45 -1 2 -4 16 -4 29 1 13 5 27 6 29
1 3 -4 26 -5 51 -1 25 4 48 3 51 -1 2 -5 16 -4 29 1 13 5 26 6 29 1 3 -4 28
-5 56 -1 28 4 53 3 56 -2 3 -4 13 -4 23 1 9 5 22 6 28 3 14 -9 82 -7 90 2 4 3
12 1 19 -5 8 -7 14 -7 19 1 4 7 12 7 25 0 13 -7 21 -7 25 0 4 7 13 7 26 0 13
-8 19 -7 19 0 0 6 5 8 11 4 14 -8 165 -7 179 1 5 3 11 1 15 -5 4 -6 12 -7 24
-1 9 5 23 6 30 2 7 -5 30 -5 52 -1 22 4 42 4 45 -1 2 -4 16 -4 29 1 13 5 27 6
29 1 3 -4 26 -5 51 -1 25 4 48 3 51 -1 2 -5 16 -4 29 1 13 5 26 6 29 1 3 -4
28 -5 56 -1 28 4 53 3 56 -2 3 -4 13 -4 23 1 9 5 22 6 28 3 14 -9 82 -7 90 2
4 3 12 1 19 -5 8 -7 14 -7 19 1 4 7 12 7 25 0 13 -7 21 -7 25 0 4 7 13 7 26 0
13 -8 19 -7 19 0 0 6 5 8 11 4 14 -8 165 -7 179 1 5 3 11 1 15 -5 4 -6 12 -7
24 -1 9 5 23 6 30 2 7 -5 30 -5 52 -1 22 4 42 4 45 -1 2 -4 16 -4 29 1 13 5
27 6 29 1 3 -4 26 -5 51 -1 25 4 48 3 51 -1 2 -5 16 -4 29 1 13 5 26 6 29 2 3
-5 30 -5 60 -2 31 3 56 3 56 -2 0 -4 12 -3 26 2 14 6 23 6 20 2 -3 -5 15 -6
39 -2 25 4 45 3 45 -2 0 -5 5 -6 11 -2 7 4 59 9 118 11 181 6 216 9 230 18 10
6 12 4 6 -5 -6 -10 -4 -11 6 -4 8 5 32 9 54 10 40 2 96 8 170 19 22 4 54 8 70
9 25 3 117 17 135 21 3 1 25 5 50 9 25 5 54 10 65 13 11 2 34 6 50 9 17 2 41
8 55 11 14 4 30 8 35 9 6 1 13 3 18 4 8 3 10 3 62 15 47 10 40 8 135 35 41 12
80 23 85 24 26 5 212 68 229 77 10 6 28 12 40 15 11 2 30 8 41 13 72 34 135
59 135 54 0 -3 9 2 21 13 12 10 23 18 25 16 2 -1 29 9 59 23 31 14 58 25 61
25 3 0 18 9 32 19 15 10 31 19 35 19 7 1 144 74 237 129 73 42 255 165 258
174 2 5 9 9 15 9 7 0 23 10 37 22 14 13 59 50 100 82 41 33 82 66 90 73 8 7
27 24 42 37 15 13 24 27 21 30 -4 3 0 6 7 6 12 0 230 213 230 224 0 3 13 19
29 35 16 16 42 47 57 68 16 21 34 43 40 48 23 21 224 309 224 321 0 3 14 25
30 49 32 46 138 252 179 345 13 30 30 69 37 85 8 17 22 55 33 85 11 30 27 75
37 100 25 68 62 200 57 200 -3 0 -1 6 5 13 5 6 13 26 16 42 3 17 8 39 11 50
35 163 54 258 59 295 3 25 8 56 11 69 2 14 7 47 11 75 5 49 9 86 20 221 12
140 5 650 -10 755 -3 19 -8 62 -11 95 -6 60 -10 87 -20 135 -3 14 -8 45 -11
70 -3 25 -8 53 -10 62 -3 10 -8 30 -10 45 -8 42 -54 236 -61 253 -6 15 -11 30
-16 53 -6 22 -38 122 -47 142 -5 11 -16 43 -26 70 -10 28 -22 56 -27 63 -5 6
-6 12 -3 12 4 0 1 10 -6 23 -7 12 -13 24 -13 27 -17 77 -293 575 -327 588 -4
2 -8 9 -8 15 0 9 -126 182 -155 213 -6 6 -27 31 -46 54 -53 67 -296 310 -309
310 -6 0 -8 5 -5 10 3 6 2 10 -2 10 -5 0 -25 15 -45 33 -20 17 -49 42 -65 54
-25 19 -56 44 -90 73 -71 60 -359 244 -469 300 -27 14 -51 27 -54 31 -9 10
-90 49 -90 43 0 -3 -13 4 -30 16 -16 12 -30 18 -30 13 0 -4 -4 -3 -8 3 -13 19
-305 136 -472 190 -41 13 -82 27 -90 30 -8 4 -19 8 -25 9 -5 2 -37 10 -70 18
-176 45 -232 58 -250 62 -11 2 -20 4 -20 5 0 1 -11 3 -25 5 -14 2 -50 8 -80
15 -30 6 -68 13 -85 15 -16 3 -59 9 -95 14 -36 6 -85 13 -110 16 -25 3 -55 7
-66 9 -12 3 -62 8 -110 11 -49 4 -107 9 -129 10 -44 4 -364 18 -380 17 -41 -3
-155 -1 -178 2 -15 2 -29 0 -31 -3 -3 -4 -22 -5 -43 -4 -48 4 -195 5 -208 3
-5 -1 -12 -2 -15 -1 -7 2 -203 3 -215 1 -5 -1 -32 -1 -60 0 -27 1 -61 1 -75 1
-92 1 -208 0 -225 -1 -11 0 -31 0 -45 1 -14 0 -36 1 -50 1 -14 0 -65 -1 -115
-1 -49 0 -99 0 -110 -1 -11 0 -31 0 -45 1 -14 0 -36 1 -50 1 -14 0 -65 -1
-115 -1 -49 0 -99 0 -110 -1 -11 0 -31 0 -45 1 -14 0 -36 1 -50 1 -14 0 -65
-1 -115 -1 -49 0 -117 0 -150 -1 -136 0 -181 1 -208 4 -15 2 -29 0 -31 -3 -3
-4 -22 -5 -43 -4 -48 4 -195 5 -208 3 -5 -1 -12 -2 -15 -1 -7 2 -203 3 -215 1
-5 -1 -26 -2 -45 -1 -98 2 -196 3 -205 1 -5 -1 -12 -2 -15 -1 -13 4 -212 5
-216 2z m3481 -1385 c74 -11 130 -19 155 -22 14 -2 41 -6 60 -10 19 -4 45 -9
58 -11 58 -8 68 -10 82 -15 8 -3 40 -11 70 -18 61 -13 223 -65 255 -81 12 -6
27 -11 35 -13 8 -2 33 -11 55 -21 22 -11 42 -19 45 -20 7 -1 141 -70 184 -95
71 -39 236 -152 236 -161 0 -5 5 -9 11 -9 13 0 29 -14 163 -142 55 -54 123
-126 151 -160 27 -35 52 -65 56 -68 3 -3 35 -50 72 -106 60 -92 128 -217 172
-319 9 -22 21 -49 26 -60 25 -57 87 -267 103 -345 3 -14 7 -34 9 -45 3 -11 8
-40 11 -65 3 -25 8 -56 11 -69 2 -13 7 -46 10 -75 3 -28 8 -76 11 -106 9 -84
9 -415 0 -510 -4 -47 -9 -101 -10 -120 -1 -19 -4 -39 -7 -45 -4 -5 -5 -20 -4
-32 1 -13 -2 -23 -7 -23 -5 0 -7 -4 -4 -9 5 -7 -22 -157 -39 -221 -19 -68 -44
-149 -52 -170 -6 -14 -9 -28 -6 -32 2 -5 -1 -8 -8 -8 -7 0 -9 -3 -6 -6 3 -4 1
-16 -5 -28 -7 -11 -13 -30 -15 -41 -2 -10 -10 -29 -18 -42 -8 -12 -15 -29 -15
-38 0 -8 -4 -15 -10 -15 -5 0 -10 -6 -10 -13 0 -25 -90 -185 -167 -296 -66
-96 -125 -164 -233 -271 -115 -115 -139 -135 -250 -215 -72 -52 -299 -189
-307 -186 -2 0 -29 -11 -60 -25 -102 -45 -117 -51 -164 -68 -26 -9 -57 -19
-70 -21 -13 -3 -25 -9 -27 -15 -2 -6 -7 -8 -11 -6 -4 3 -29 -1 -55 -9 -26 -8
-82 -22 -124 -31 -42 -8 -86 -18 -97 -20 -48 -11 -92 -17 -122 -18 -18 0 -33
-3 -33 -6 0 -3 -12 -6 -27 -6 -16 -1 -53 -5 -83 -9 -30 -4 -461 -9 -957 -11
l-903 -4 0 28 c-1 47 -1 4566 0 4580 0 11 160 13 913 9 501 -3 930 -7 952 -11z"/>
</g>
</svg>
