<?xml version="1.0" encoding="UTF-8"?>
<svg width="342px" height="80px" viewBox="0 0 342 80" version="1.1" xmlns="http://www.w3.org/2000/svg" xmlns:xlink="http://www.w3.org/1999/xlink">
    <title>DegreeSee Logo Long</title>
    <g id="Log-In-+-Dashboard-App-View" stroke="none" stroke-width="1" fill="none" fill-rule="evenodd">
        <g id="Desktop-HD" transform="translate(-21.000000, -14.000000)" fill="#FFFFFF">
            <g id="DegreeSee-Logo-Long" transform="translate(21.000000, 14.000000)">
                <path d="M40.0989888,0.000207178242 C60.8916714,0.000207178242 77.9880787,15.7866124 80.0001515,35.999594 L59.7473723,35.9992841 C57.8894101,26.8707371 49.7985546,20.0001036 40.0989888,20.0001036 C29.0259016,20.0001036 20.0493908,28.9543622 20.0493908,40 C20.0493908,51.0456378 29.0259016,59.9998964 40.0989888,59.9998964 C49.7989084,59.9998964 57.8900004,53.1287616 59.7475756,43.9997169 L80.0002402,43.9995151 C77.9885811,64.2129237 60.8919769,79.9997928 40.0989888,79.9997928 C17.9528144,79.9997928 -0.000207179306,62.0912756 -0.000207179306,40 C-0.000207179306,17.9087244 17.9528144,0.000207178242 40.0989888,0.000207178242 Z M39.9999983,20.7594443 C40.1400593,20.7594443 40.2797708,20.7609408 40.4191177,20.7639188 C38.5589392,23.537205 37.6296128,26.311184 37.6296128,29.0851629 C37.6296128,34.5425815 42.4255688,34.5425815 42.4255688,40 C42.4255688,45.4574185 37.6296128,45.4574185 37.6296128,50.9148371 C37.6296128,53.6885073 38.5587323,56.4621775 40.4169713,59.2358477 L40.3420732,59.2374772 L39.9999983,59.2404569 C29.3737878,59.2404569 20.7595422,50.6261888 20.7595422,39.9999506 C20.7595422,29.3737124 29.3737878,20.7594443 39.9999983,20.7594443 Z" id="Combined-Shape"></path>
                <path d="M107.173607,55.3924051 C110.56101,55.3924051 113.554702,54.7526221 116.154682,53.4730561 C118.754663,52.1934901 120.775219,50.3918023 122.216351,48.0679928 C123.657483,45.7441832 124.378049,43.0379747 124.378049,39.9493671 C124.378049,36.8607595 123.657483,34.1545509 122.216351,31.8307414 C120.775219,29.5069319 118.754663,27.7052441 116.154682,26.4256781 C113.554702,25.1461121 110.56101,24.5063291 107.173607,24.5063291 L107.173607,24.5063291 L93,24.5063291 L93,55.3924051 L107.173607,55.3924051 Z M106.624468,49.3164557 L100.085366,49.3164557 L100.085366,30.0759494 L106.624468,30.0759494 C109.717286,30.0759494 112.184177,30.9404422 114.02514,32.6694278 C115.866104,34.3984133 116.786585,36.7406716 116.786585,39.6962025 C116.786585,42.6517335 115.866104,44.9939917 114.02514,46.7229773 C112.184177,48.4519629 109.717286,49.3164557 106.624468,49.3164557 L106.624468,49.3164557 Z M140.609767,55.3924051 C144.953697,55.3924051 148.256273,54.1201846 150.517497,51.5757437 L150.517497,51.5757437 L146.813255,47.6274734 C145.980173,48.4171275 145.080147,48.9947448 144.113176,49.3603254 C143.146205,49.725906 142.037908,49.9086962 140.788285,49.9086962 C138.973355,49.9086962 137.455955,49.4846228 136.236084,48.6364758 C135.016214,47.7883288 134.242637,46.6330942 133.915355,45.1707718 L133.915355,45.1707718 L152.079526,45.1707718 C152.168785,44.0301604 152.213415,43.415985 152.213415,43.3282457 C152.213415,40.8715441 151.670423,38.7146187 150.584441,36.8574693 C149.498459,35.0003199 148.003373,33.5745556 146.099185,32.5801764 C144.194996,31.5857972 142.067661,31.0886076 139.717179,31.0886076 C137.30719,31.0886076 135.127787,31.607732 133.178969,32.6459809 C131.230152,33.6842298 129.697875,35.1319289 128.58214,36.9890783 C127.466404,38.8462277 126.908537,40.930037 126.908537,43.2405063 C126.908537,45.5802221 127.473843,47.6713431 128.604454,49.5138692 C129.735066,51.3563954 131.341725,52.7967829 133.424431,53.8350318 C135.507137,54.8732806 137.902249,55.3924051 140.609767,55.3924051 Z M145.634146,41.2151899 L133.993902,41.2151899 C134.228171,39.6479807 134.872411,38.4122966 135.926622,37.5081374 C136.980833,36.6039783 138.283955,36.1518987 139.835987,36.1518987 C141.358736,36.1518987 142.647216,36.611513 143.701427,37.5307414 C144.755637,38.4499699 145.399877,39.6781193 145.634146,41.2151899 L145.634146,41.2151899 Z M168.2095,64 C172.573564,64 175.890842,62.9440195 178.161334,60.8320585 C180.431827,58.7200975 181.567073,55.4934904 181.567073,51.1522372 L181.567073,51.1522372 L181.567073,31.4406011 L175.020978,31.4406011 L175.020978,34.476545 C173.222276,32.2179201 170.59794,31.0886076 167.147971,31.0886076 C164.965939,31.0886076 162.9682,31.5652655 161.154755,32.5185812 C159.34131,33.4718969 157.903823,34.8138722 156.842294,36.5445069 C155.780765,38.2751416 155.25,40.2697714 155.25,42.5283964 C155.25,44.7870214 155.780765,46.7816512 156.842294,48.5122859 C157.903823,50.2429206 159.34131,51.5848959 161.154755,52.5382116 C162.9682,53.4915273 164.965939,53.9681852 167.147971,53.9681852 C170.362045,53.9681852 172.868433,52.9855367 174.667135,51.0202396 L174.667135,51.0202396 L174.667135,52.0322209 C174.667135,54.2028475 174.099512,55.8234843 172.964265,56.8941312 C171.829019,57.9647781 170.067176,58.5001015 167.678735,58.5001015 C166.145416,58.5001015 164.612096,58.258106 163.078776,57.7741149 C161.545457,57.2901239 160.277519,56.6374693 159.274964,55.8161511 L159.274964,55.8161511 L156.532681,60.7440601 C157.889079,61.8000406 159.59932,62.6066924 161.663404,63.1640154 C163.727489,63.7213385 165.90952,64 168.2095,64 Z M168.177842,48.3037975 C166.3299,48.3037975 164.809819,47.7671014 163.617599,46.6937092 C162.425378,45.6203171 161.829268,44.2160849 161.829268,42.4810127 C161.829268,40.7459404 162.425378,39.3417082 163.617599,38.2683161 C164.809819,37.1949239 166.3299,36.6582278 168.177842,36.6582278 C170.025784,36.6582278 171.538413,37.1949239 172.715731,38.2683161 C173.893048,39.3417082 174.481707,40.7459404 174.481707,42.4810127 C174.481707,44.2160849 173.893048,45.6203171 172.715731,46.6937092 C171.538413,47.7671014 170.025784,48.3037975 168.177842,48.3037975 Z M195.001387,55.3924051 L195.001387,44.0862429 C195.001387,41.8606204 195.557994,40.1914035 196.671206,39.0785923 C197.784419,37.9657811 199.32241,37.4093754 201.28518,37.4093754 C201.548835,37.4093754 202.061499,37.4390504 202.823171,37.4984003 L202.823171,37.4984003 L202.823171,31.0886076 C201.006876,31.0886076 199.402971,31.3853573 198.011456,31.9788566 C196.61994,32.5723559 195.514051,33.4477674 194.693789,34.6050911 L194.693789,34.6050911 L194.693789,31.4447072 L188.146341,31.4447072 L188.146341,55.3924051 L195.001387,55.3924051 Z M218.548791,55.3924051 C222.892721,55.3924051 226.195298,54.1201846 228.456521,51.5757437 L228.456521,51.5757437 L224.75228,47.6274734 C223.919197,48.4171275 223.019171,48.9947448 222.0522,49.3603254 C221.08523,49.725906 219.976933,49.9086962 218.727309,49.9086962 C216.912379,49.9086962 215.394979,49.4846228 214.175109,48.6364758 C212.955238,47.7883288 212.181661,46.6330942 211.854379,45.1707718 L211.854379,45.1707718 L230.018551,45.1707718 C230.10781,44.0301604 230.152439,43.415985 230.152439,43.3282457 C230.152439,40.8715441 229.609448,38.7146187 228.523465,36.8574693 C227.437483,35.0003199 225.942398,33.5745556 224.038209,32.5801764 C222.134021,31.5857972 220.006685,31.0886076 217.656203,31.0886076 C215.246215,31.0886076 213.066811,31.607732 211.117994,32.6459809 C209.169176,33.6842298 207.636899,35.1319289 206.521164,36.9890783 C205.405429,38.8462277 204.847561,40.930037 204.847561,43.2405063 C204.847561,45.5802221 205.412867,47.6713431 206.543479,49.5138692 C207.674091,51.3563954 209.280749,52.7967829 211.363455,53.8350318 C213.446162,54.8732806 215.841273,55.3924051 218.548791,55.3924051 Z M223.067073,41.2151899 L211.426829,41.2151899 C211.661098,39.6479807 212.305338,38.4122966 213.359549,37.5081374 C214.41376,36.6039783 215.716881,36.1518987 217.268914,36.1518987 C218.791663,36.1518987 220.080143,36.611513 221.134353,37.5307414 C222.188564,38.4499699 222.832804,39.6781193 223.067073,41.2151899 L223.067073,41.2151899 Z M246.384157,55.3924051 C250.728087,55.3924051 254.030663,54.1201846 256.291887,51.5757437 L256.291887,51.5757437 L252.587646,47.6274734 C251.754563,48.4171275 250.854537,48.9947448 249.887566,49.3603254 C248.920595,49.725906 247.812298,49.9086962 246.562675,49.9086962 C244.747745,49.9086962 243.230345,49.4846228 242.010474,48.6364758 C240.790604,47.7883288 240.017027,46.6330942 239.689745,45.1707718 L239.689745,45.1707718 L257.853917,45.1707718 C257.943175,44.0301604 257.987805,43.415985 257.987805,43.3282457 C257.987805,40.8715441 257.444814,38.7146187 256.358831,36.8574693 C255.272849,35.0003199 253.777763,33.5745556 251.873575,32.5801764 C249.969387,31.5857972 247.842051,31.0886076 245.491569,31.0886076 C243.08158,31.0886076 240.902177,31.607732 238.95336,32.6459809 C237.004542,33.6842298 235.472265,35.1319289 234.35653,36.9890783 C233.240795,38.8462277 232.682927,40.930037 232.682927,43.2405063 C232.682927,45.5802221 233.248233,47.6713431 234.378845,49.5138692 C235.509456,51.3563954 237.116115,52.7967829 239.198821,53.8350318 C241.281527,54.8732806 243.676639,55.3924051 246.384157,55.3924051 Z M251.408537,41.2151899 L239.768293,41.2151899 C240.002562,39.6479807 240.646802,38.4122966 241.701012,37.5081374 C242.755223,36.6039783 244.058345,36.1518987 245.610377,36.1518987 C247.133126,36.1518987 248.421606,36.611513 249.475817,37.5307414 C250.530028,38.4499699 251.174268,39.6781193 251.408537,41.2151899 L251.408537,41.2151899 Z M273.157688,55.8987342 C275.996008,55.8987342 278.405624,55.4728303 280.386535,54.6210224 C282.367446,53.7692146 283.853129,52.6163368 284.843585,51.162389 C285.834041,49.7084411 286.329268,48.1002867 286.329268,46.3379257 C286.329268,44.2818379 285.789692,42.651654 284.710539,41.4473739 C283.631386,40.2430939 282.33788,39.3619134 280.830023,38.8038324 C279.322165,38.2457515 277.385603,37.6876705 275.020336,37.1295895 C272.743766,36.6302539 271.051122,36.1235751 269.942403,35.6095531 C268.833684,35.0955312 268.279325,34.3098119 268.279325,33.2523953 C268.279325,32.1949787 268.75977,31.3431709 269.720659,30.6969718 C270.681549,30.0507728 272.167232,29.7276733 274.177709,29.7276733 C277.045596,29.7276733 279.913482,30.5354221 282.781368,32.1509196 L282.781368,32.1509196 L284.998806,26.7316596 C283.579645,25.8504791 281.923959,25.1749073 280.031745,24.7049444 C278.139531,24.2349815 276.202969,24 274.222058,24 C271.383738,24 268.981513,24.4259039 267.015385,25.2777117 C265.049257,26.1295195 263.578357,27.2823974 262.602684,28.7363452 C261.627012,30.190293 261.139175,31.8131338 261.139175,33.6048675 C261.139175,35.6609553 261.678752,37.3058256 262.757905,38.5394783 C263.837058,39.773131 265.130563,40.6689978 266.638421,41.2270788 C268.146279,41.7851598 270.082841,42.3432408 272.448108,42.9013218 C273.985531,43.253794 275.205122,43.5768935 276.10688,43.8706203 C277.008638,44.1643472 277.747784,44.5535352 278.324318,45.0381845 C278.900852,45.5228338 279.189119,46.1323169 279.189119,46.866634 C279.189119,47.8653053 278.701282,48.6657109 277.72561,49.2678509 C276.749937,49.8699909 275.242079,50.1710609 273.202037,50.1710609 C271.368955,50.1710609 269.535873,49.8773341 267.702791,49.2898804 C265.869709,48.7024267 264.287937,47.9240506 262.957474,46.9547521 L262.957474,46.9547521 L260.518293,52.3299531 C261.907887,53.3873697 263.74836,54.2465207 266.039713,54.9074061 C268.331065,55.5682915 270.703723,55.8987342 273.157688,55.8987342 Z M302.560986,55.3924051 C306.904916,55.3924051 310.207493,54.1201846 312.468716,51.5757437 L312.468716,51.5757437 L308.764475,47.6274734 C307.931393,48.4171275 307.031366,48.9947448 306.064395,49.3603254 C305.097425,49.725906 303.989128,49.9086962 302.739504,49.9086962 C300.924574,49.9086962 299.407174,49.4846228 298.187304,48.6364758 C296.967433,47.7883288 296.193857,46.6330942 295.866574,45.1707718 L295.866574,45.1707718 L314.030746,45.1707718 C314.120005,44.0301604 314.164634,43.415985 314.164634,43.3282457 C314.164634,40.8715441 313.621643,38.7146187 312.535661,36.8574693 C311.449678,35.0003199 309.954593,33.5745556 308.050404,32.5801764 C306.146216,31.5857972 304.018881,31.0886076 301.668398,31.0886076 C299.25841,31.0886076 297.079007,31.607732 295.130189,32.6459809 C293.181371,33.6842298 291.649095,35.1319289 290.533359,36.9890783 C289.417624,38.8462277 288.859756,40.930037 288.859756,43.2405063 C288.859756,45.5802221 289.425062,47.6713431 290.555674,49.5138692 C291.686286,51.3563954 293.292945,52.7967829 295.375651,53.8350318 C297.458357,54.8732806 299.853469,55.3924051 302.560986,55.3924051 Z M307.585366,41.2151899 L295.945122,41.2151899 C296.179391,39.6479807 296.823631,38.4122966 297.877842,37.5081374 C298.932052,36.6039783 300.235174,36.1518987 301.787207,36.1518987 C303.309956,36.1518987 304.598435,36.611513 305.652646,37.5307414 C306.706857,38.4499699 307.351097,39.6781193 307.585366,41.2151899 L307.585366,41.2151899 Z M330.396352,55.3924051 C334.740282,55.3924051 338.042859,54.1201846 340.304082,51.5757437 L340.304082,51.5757437 L336.599841,47.6274734 C335.766758,48.4171275 334.866732,48.9947448 333.899761,49.3603254 C332.932791,49.725906 331.824493,49.9086962 330.57487,49.9086962 C328.75994,49.9086962 327.24254,49.4846228 326.02267,48.6364758 C324.802799,47.7883288 324.029222,46.6330942 323.70194,45.1707718 L323.70194,45.1707718 L341.866112,45.1707718 C341.955371,44.0301604 342,43.415985 342,43.3282457 C342,40.8715441 341.457009,38.7146187 340.371026,36.8574693 C339.285044,35.0003199 337.789959,33.5745556 335.88577,32.5801764 C333.981582,31.5857972 331.854246,31.0886076 329.503764,31.0886076 C327.093776,31.0886076 324.914372,31.607732 322.965555,32.6459809 C321.016737,33.6842298 319.48446,35.1319289 318.368725,36.9890783 C317.25299,38.8462277 316.695122,40.930037 316.695122,43.2405063 C316.695122,45.5802221 317.260428,47.6713431 318.39104,49.5138692 C319.521652,51.3563954 321.12831,52.7967829 323.211016,53.8350318 C325.293722,54.8732806 327.688834,55.3924051 330.396352,55.3924051 Z M335.420732,41.2151899 L323.780488,41.2151899 C324.014757,39.6479807 324.658997,38.4122966 325.713208,37.5081374 C326.767418,36.6039783 328.07054,36.1518987 329.622572,36.1518987 C331.145321,36.1518987 332.433801,36.611513 333.488012,37.5307414 C334.542223,38.4499699 335.186463,39.6781193 335.420732,41.2151899 L335.420732,41.2151899 Z" id="DegreeSee" fill-rule="nonzero"></path>
            </g>
        </g>
    </g>
</svg>