<?xml version="1.0" encoding="UTF-8"?>
<svg width="237px" height="263px" viewBox="0 0 237 263" version="1.1" xmlns="http://www.w3.org/2000/svg" xmlns:xlink="http://www.w3.org/1999/xlink">
    <title>DegreeSee Shorthand Logo@2x</title>
    <defs>
        <linearGradient x1="0%" y1="-17.8522436%" x2="106.72796%" y2="99.4609204%" id="linearGradient-1">
            <stop stop-color="#FF9855" offset="0%"></stop>
            <stop stop-color="#E05900" offset="100%"></stop>
        </linearGradient>
        <linearGradient x1="20.2023544%" y1="7.86254389%" x2="107.371958%" y2="128.525443%" id="linearGradient-2">
            <stop stop-color="#FF9855" offset="0%"></stop>
            <stop stop-color="#E05900" offset="100%"></stop>
        </linearGradient>
    </defs>
    <g id="Favicon" stroke="none" stroke-width="1" fill="none" fill-rule="evenodd">
        <g transform="translate(-10.000000, 2.000000)" id="DegreeSee-Shorthand-Logo">
            <g transform="translate(10.500000, -1.500000)">
                <path d="M84.2516154,261.5 C104.223206,261.5 121.873538,257.688571 137.20261,250.065714 C152.531682,242.442857 164.44456,231.709524 172.941246,217.865714 C181.437932,204.021905 185.686275,187.9 185.686275,169.5 C185.686275,151.1 181.437932,134.978095 172.941246,121.134286 C164.44456,107.290476 152.531682,96.5571429 137.20261,88.9342857 C121.873538,81.3114286 104.223206,77.5 84.2516154,77.5 L84.2516154,77.5 L0.68627451,77.5 L0.68627451,261.5 L84.2516154,261.5 Z M82.5630252,227.22549 L44.2156863,227.22549 L44.2156863,111.77451 L82.5630252,111.77451 C100.70028,111.77451 115.1669,116.961823 125.962885,127.336451 C136.75887,137.711078 142.156863,151.765594 142.156863,169.5 C142.156863,187.234406 136.75887,201.288922 125.962885,211.663549 C115.1669,222.038177 100.70028,227.22549 82.5630252,227.22549 L82.5630252,227.22549 Z" id="D" fill="url(#linearGradient-1)" fill-rule="nonzero"></path>
                <path d="M185.624967,-1.44292341e-06 C211.875847,-1.4429234e-06 233.460112,20.1281655 235.999992,45.900214 L210.431171,45.9003113 C208.085986,34.2607304 197.871042,25.4999993 185.624967,25.4999993 C171.645269,25.4999993 160.312484,36.9167385 160.312484,50.9999993 C160.312484,65.0832615 171.645269,76.4999993 185.624967,76.4999993 C197.870692,76.4999993 208.085402,67.7397705 210.43097,56.1006867 L235.999893,56.1007853 C233.459553,81.8723557 211.875507,101.999999 185.624967,101.999999 C157.665571,101.999999 135.000001,79.166523 135.000001,50.9999986 C135.000001,22.833477 157.665571,-1.44292342e-06 185.624967,-1.44292341e-06 Z M185.680107,27.5604562 C183.827428,30.7493619 182.901611,33.9375539 182.901611,37.1257458 C182.901611,44.0628729 188.745935,44.0628729 188.745935,51 C188.745935,57.9371271 182.901611,57.9371271 182.901611,64.8742542 C182.901611,68.062588 183.82751,71.2509217 185.679309,74.4392555 C172.448763,74.1343552 161.821429,63.7569569 161.821429,51 C161.821429,38.2427218 172.449298,27.865122 185.680107,27.5604562 Z" id="Combined-Shape" fill="url(#linearGradient-2)"></path>
            </g>
        </g>
    </g>
</svg>